<mxfile host="Electron" modified="2024-08-12T01:02:04.779Z" agent="Mozilla/5.0 (Windows NT 10.0; Win64; x64) AppleWebKit/537.36 (KHTML, like Gecko) draw.io/24.2.5 Chrome/120.0.6099.109 Electron/28.1.0 Safari/537.36" etag="PW1-Yba9sTtCKZ5VCYGo" version="24.2.5" type="device">
  <diagram name="Page-1" id="dQeiNejjAbZQLN7YZDwO">
    <mxGraphModel dx="523" dy="570" grid="1" gridSize="10" guides="1" tooltips="1" connect="1" arrows="1" fold="1" page="1" pageScale="1" pageWidth="850" pageHeight="1100" math="0" shadow="0">
      <root>
        <mxCell id="0" />
        <mxCell id="1" parent="0" />
        <mxCell id="pZK1ddqQYXmrN1PJfE1U-3" style="edgeStyle=orthogonalEdgeStyle;rounded=0;orthogonalLoop=1;jettySize=auto;html=1;exitX=1;exitY=0.25;exitDx=0;exitDy=0;entryX=0;entryY=0.25;entryDx=0;entryDy=0;" edge="1" parent="1" source="pZK1ddqQYXmrN1PJfE1U-1" target="pZK1ddqQYXmrN1PJfE1U-2">
          <mxGeometry relative="1" as="geometry" />
        </mxCell>
        <mxCell id="pZK1ddqQYXmrN1PJfE1U-1" value="My App" style="rounded=0;whiteSpace=wrap;html=1;fillColor=#fff2cc;strokeColor=#d6b656;" vertex="1" parent="1">
          <mxGeometry x="210" y="380" width="120" height="60" as="geometry" />
        </mxCell>
        <mxCell id="pZK1ddqQYXmrN1PJfE1U-4" style="edgeStyle=orthogonalEdgeStyle;rounded=0;orthogonalLoop=1;jettySize=auto;html=1;exitX=0;exitY=0.75;exitDx=0;exitDy=0;entryX=1;entryY=0.75;entryDx=0;entryDy=0;" edge="1" parent="1" source="pZK1ddqQYXmrN1PJfE1U-2" target="pZK1ddqQYXmrN1PJfE1U-1">
          <mxGeometry relative="1" as="geometry" />
        </mxCell>
        <mxCell id="pZK1ddqQYXmrN1PJfE1U-2" value="PixPayment" style="rounded=0;whiteSpace=wrap;html=1;fillColor=#d5e8d4;strokeColor=#82b366;" vertex="1" parent="1">
          <mxGeometry x="500" y="380" width="120" height="60" as="geometry" />
        </mxCell>
        <mxCell id="pZK1ddqQYXmrN1PJfE1U-5" value="getDiscount()" style="text;html=1;align=center;verticalAlign=middle;resizable=0;points=[];autosize=1;strokeColor=none;fillColor=none;" vertex="1" parent="1">
          <mxGeometry x="370" y="370" width="90" height="30" as="geometry" />
        </mxCell>
      </root>
    </mxGraphModel>
  </diagram>
</mxfile>
